<svg xmlns="http://www.w3.org/2000/svg" xmlns:xlink="http://www.w3.org/1999/xlink" width="500" zoomAndPan="magnify" viewBox="0 0 375 374.999991" height="500" preserveAspectRatio="xMidYMid meet" version="1.0"><defs><clipPath id="bb8ef9cb44"><path d="M 94.109375 142 L 111.699219 142 L 111.699219 231.660156 L 94.109375 231.660156 Z M 94.109375 142 " clip-rule="nonzero"/></clipPath><clipPath id="0bf9ea68a2"><path d="M 100.109375 142 L 105.699219 142 C 109.011719 142 111.699219 144.6875 111.699219 148 L 111.699219 225.605469 C 111.699219 228.917969 109.011719 231.605469 105.699219 231.605469 L 100.109375 231.605469 C 96.796875 231.605469 94.109375 228.917969 94.109375 225.605469 L 94.109375 148 C 94.109375 144.6875 96.796875 142 100.109375 142 Z M 100.109375 142 " clip-rule="nonzero"/></clipPath><clipPath id="f29a1e1517"><path d="M 67.089844 142 L 138.679688 142 L 138.679688 159.589844 L 67.089844 159.589844 Z M 67.089844 142 " clip-rule="nonzero"/></clipPath><clipPath id="301c4eed39"><path d="M 138.679688 148 L 138.679688 153.589844 C 138.679688 156.902344 135.992188 159.589844 132.679688 159.589844 L 73.121094 159.589844 C 69.804688 159.589844 67.121094 156.902344 67.121094 153.589844 L 67.121094 148 C 67.121094 144.6875 69.804688 142 73.121094 142 L 132.679688 142 C 135.992188 142 138.679688 144.6875 138.679688 148 Z M 138.679688 148 " clip-rule="nonzero"/></clipPath><clipPath id="e2616d57cd"><path d="M 150.496094 142 L 168.085938 142 L 168.085938 231.660156 L 150.496094 231.660156 Z M 150.496094 142 " clip-rule="nonzero"/></clipPath><clipPath id="4a4519c907"><path d="M 156.496094 142 L 162.085938 142 C 165.398438 142 168.085938 144.6875 168.085938 148 L 168.085938 225.605469 C 168.085938 228.917969 165.398438 231.605469 162.085938 231.605469 L 156.496094 231.605469 C 153.183594 231.605469 150.496094 228.917969 150.496094 225.605469 L 150.496094 148 C 150.496094 144.6875 153.183594 142 156.496094 142 Z M 156.496094 142 " clip-rule="nonzero"/></clipPath><clipPath id="31f1ad9bdc"><path d="M 206.535156 142 L 224.125 142 L 224.125 231.660156 L 206.535156 231.660156 Z M 206.535156 142 " clip-rule="nonzero"/></clipPath><clipPath id="052b7bf792"><path d="M 212.535156 142 L 218.125 142 C 221.4375 142 224.125 144.6875 224.125 148 L 224.125 225.605469 C 224.125 228.917969 221.4375 231.605469 218.125 231.605469 L 212.535156 231.605469 C 209.222656 231.605469 206.535156 228.917969 206.535156 225.605469 L 206.535156 148 C 206.535156 144.6875 209.222656 142 212.535156 142 Z M 212.535156 142 " clip-rule="nonzero"/></clipPath><clipPath id="5b9d057807"><path d="M 152 143 L 224 143 L 224 232 L 152 232 Z M 152 143 " clip-rule="nonzero"/></clipPath><clipPath id="f1e32fd009"><path d="M 150.5 151.136719 L 164.691406 140.746094 L 225.570312 223.902344 L 211.378906 234.289062 Z M 150.5 151.136719 " clip-rule="nonzero"/></clipPath><clipPath id="2aa5e4f289"><path d="M 155.339844 147.59375 L 159.851562 144.292969 C 162.523438 142.335938 166.277344 142.914062 168.234375 145.589844 L 221.992188 219.015625 C 223.953125 221.691406 223.371094 225.445312 220.695312 227.402344 L 216.1875 230.703125 C 213.515625 232.660156 209.757812 232.082031 207.800781 229.40625 L 154.042969 155.976562 C 152.085938 153.304688 152.667969 149.550781 155.339844 147.59375 Z M 155.339844 147.59375 " clip-rule="nonzero"/></clipPath><clipPath id="84ac1cfab9"><path d="M 263.300781 142 L 280.890625 142 L 280.890625 231.660156 L 263.300781 231.660156 Z M 263.300781 142 " clip-rule="nonzero"/></clipPath><clipPath id="58a0c04ab6"><path d="M 269.300781 142 L 274.890625 142 C 278.203125 142 280.890625 144.6875 280.890625 148 L 280.890625 225.605469 C 280.890625 228.917969 278.203125 231.605469 274.890625 231.605469 L 269.300781 231.605469 C 265.988281 231.605469 263.300781 228.917969 263.300781 225.605469 L 263.300781 148 C 263.300781 144.6875 265.988281 142 269.300781 142 Z M 269.300781 142 " clip-rule="nonzero"/></clipPath><clipPath id="4c6de66dba"><path d="M 236.285156 142 L 307.871094 142 L 307.871094 159.589844 L 236.285156 159.589844 Z M 236.285156 142 " clip-rule="nonzero"/></clipPath><clipPath id="34e9a92f4c"><path d="M 307.871094 148 L 307.871094 153.589844 C 307.871094 156.902344 305.1875 159.589844 301.871094 159.589844 L 242.3125 159.589844 C 239 159.589844 236.3125 156.902344 236.3125 153.589844 L 236.3125 148 C 236.3125 144.6875 239 142 242.3125 142 L 301.871094 142 C 305.1875 142 307.871094 144.6875 307.871094 148 Z M 307.871094 148 " clip-rule="nonzero"/></clipPath><clipPath id="6c976d7ae8"><path d="M 37.5 37.5 L 55.984375 37.5 L 55.984375 314.09375 L 37.5 314.09375 Z M 37.5 37.5 " clip-rule="nonzero"/></clipPath><clipPath id="f8293e6317"><path d="M 43.5 37.5 L 49.984375 37.5 C 53.296875 37.5 55.984375 40.1875 55.984375 43.5 L 55.984375 308.046875 C 55.984375 311.359375 53.296875 314.046875 49.984375 314.046875 L 43.5 314.046875 C 40.1875 314.046875 37.5 311.359375 37.5 308.046875 L 37.5 43.5 C 37.5 40.1875 40.1875 37.5 43.5 37.5 Z M 43.5 37.5 " clip-rule="nonzero"/></clipPath><clipPath id="842d5673f5"><path d="M 319.015625 37.5 L 337.5 37.5 L 337.5 337.558594 L 319.015625 337.558594 Z M 319.015625 37.5 " clip-rule="nonzero"/></clipPath><clipPath id="6ae98a2200"><path d="M 325.015625 37.5 L 331.5 37.5 C 334.8125 37.5 337.5 40.1875 337.5 43.5 L 337.5 331.5 C 337.5 334.8125 334.8125 337.5 331.5 337.5 L 325.015625 337.5 C 321.703125 337.5 319.015625 334.8125 319.015625 331.5 L 319.015625 43.5 C 319.015625 40.1875 321.703125 37.5 325.015625 37.5 Z M 325.015625 37.5 " clip-rule="nonzero"/></clipPath><clipPath id="88f3fdb5cf"><path d="M 37.4375 37.5 L 337.5 37.5 L 337.5 55.984375 L 37.4375 55.984375 Z M 37.4375 37.5 " clip-rule="nonzero"/></clipPath><clipPath id="8b75b15d99"><path d="M 337.5 43.5 L 337.5 49.984375 C 337.5 53.296875 334.8125 55.984375 331.5 55.984375 L 43.5 55.984375 C 40.183594 55.984375 37.5 53.296875 37.5 49.984375 L 37.5 43.5 C 37.5 40.1875 40.183594 37.5 43.5 37.5 L 331.5 37.5 C 334.8125 37.5 337.5 40.1875 337.5 43.5 Z M 337.5 43.5 " clip-rule="nonzero"/></clipPath><clipPath id="92e4b8ee45"><path d="M 67.113281 328.257812 L 337.496094 328.257812 L 337.496094 346.742188 L 67.113281 346.742188 Z M 67.113281 328.257812 " clip-rule="nonzero"/></clipPath><clipPath id="fed26baa16"><path d="M 337.496094 334.257812 L 337.496094 340.742188 C 337.496094 344.054688 334.8125 346.742188 331.496094 346.742188 L 73.121094 346.742188 C 69.808594 346.742188 67.121094 344.054688 67.121094 340.742188 L 67.121094 334.257812 C 67.121094 330.945312 69.808594 328.257812 73.121094 328.257812 L 331.496094 328.257812 C 334.8125 328.257812 337.496094 330.945312 337.496094 334.257812 Z M 337.496094 334.257812 " clip-rule="nonzero"/></clipPath></defs><rect x="-37.5" width="450" fill="#ffffff" y="-37.499999" height="449.999989" fill-opacity="1"/><rect x="-37.5" width="450" fill="#000000" y="-37.499999" height="449.999989" fill-opacity="1"/><g clip-path="url(#bb8ef9cb44)"><g clip-path="url(#0bf9ea68a2)"><path fill="#ffffff" d="M 94.109375 142 L 111.699219 142 L 111.699219 231.589844 L 94.109375 231.589844 Z M 94.109375 142 " fill-opacity="1" fill-rule="nonzero"/></g></g><g clip-path="url(#f29a1e1517)"><g clip-path="url(#301c4eed39)"><path fill="#ffffff" d="M 138.679688 142 L 138.679688 159.589844 L 67.089844 159.589844 L 67.089844 142 Z M 138.679688 142 " fill-opacity="1" fill-rule="nonzero"/></g></g><g clip-path="url(#e2616d57cd)"><g clip-path="url(#4a4519c907)"><path fill="#ffffff" d="M 150.496094 142 L 168.085938 142 L 168.085938 231.589844 L 150.496094 231.589844 Z M 150.496094 142 " fill-opacity="1" fill-rule="nonzero"/></g></g><g clip-path="url(#31f1ad9bdc)"><g clip-path="url(#052b7bf792)"><path fill="#ffffff" d="M 206.535156 142 L 224.125 142 L 224.125 231.589844 L 206.535156 231.589844 Z M 206.535156 142 " fill-opacity="1" fill-rule="nonzero"/></g></g><g clip-path="url(#5b9d057807)"><g clip-path="url(#f1e32fd009)"><g clip-path="url(#2aa5e4f289)"><path fill="#ffffff" d="M 150.5 151.136719 L 164.691406 140.746094 L 225.527344 223.84375 L 211.335938 234.234375 Z M 150.5 151.136719 " fill-opacity="1" fill-rule="nonzero"/></g></g></g><g clip-path="url(#84ac1cfab9)"><g clip-path="url(#58a0c04ab6)"><path fill="#ffffff" d="M 263.300781 142 L 280.890625 142 L 280.890625 231.589844 L 263.300781 231.589844 Z M 263.300781 142 " fill-opacity="1" fill-rule="nonzero"/></g></g><g clip-path="url(#4c6de66dba)"><g clip-path="url(#34e9a92f4c)"><path fill="#ffffff" d="M 307.871094 142 L 307.871094 159.589844 L 236.285156 159.589844 L 236.285156 142 Z M 307.871094 142 " fill-opacity="1" fill-rule="nonzero"/></g></g><g clip-path="url(#6c976d7ae8)"><g clip-path="url(#f8293e6317)"><path fill="#ffffff" d="M 37.5 37.5 L 55.984375 37.5 L 55.984375 314.023438 L 37.5 314.023438 Z M 37.5 37.5 " fill-opacity="1" fill-rule="nonzero"/></g></g><g clip-path="url(#842d5673f5)"><g clip-path="url(#6ae98a2200)"><path fill="#ffffff" d="M 319.015625 37.5 L 337.5 37.5 L 337.5 337.488281 L 319.015625 337.488281 Z M 319.015625 37.5 " fill-opacity="1" fill-rule="nonzero"/></g></g><g clip-path="url(#88f3fdb5cf)"><g clip-path="url(#8b75b15d99)"><path fill="#ffffff" d="M 337.5 37.5 L 337.5 55.984375 L 37.511719 55.984375 L 37.511719 37.5 Z M 337.5 37.5 " fill-opacity="1" fill-rule="nonzero"/></g></g><g clip-path="url(#92e4b8ee45)"><g clip-path="url(#fed26baa16)"><path fill="#ffffff" d="M 337.496094 328.257812 L 337.496094 346.742188 L 67.113281 346.742188 L 67.113281 328.257812 Z M 337.496094 328.257812 " fill-opacity="1" fill-rule="nonzero"/></g></g></svg>